<svg width="24" height="24" viewBox="-4 -4 24 24" fill="none" xmlns="http://www.w3.org/2000/svg">
<path d="M14 3.98763C11.78 3.76763 9.54667 3.6543 7.32 3.6543C6 3.6543 4.68 3.72096 3.36 3.8543L2 3.98763" stroke="#8E979F" stroke-linecap="round" stroke-linejoin="round"/>
<path d="M5.66666 3.31398L5.81332 2.44065C5.91999 1.80732 5.99999 1.33398 7.12666 1.33398H8.87332C9.99999 1.33398 10.0867 1.83398 10.1867 2.44732L10.3333 3.31398" stroke="#8E979F" stroke-linecap="round" stroke-linejoin="round"/>
<path d="M12.5667 6.09375L12.1333 12.8071C12.06 13.8537 12 14.6671 10.14 14.6671H5.85999C3.99999 14.6671 3.93999 13.8537 3.86665 12.8071L3.43332 6.09375" stroke="#8E979F" stroke-linecap="round" stroke-linejoin="round"/>
<path d="M6.88666 11H9.10666" stroke="#8E979F" stroke-linecap="round" stroke-linejoin="round"/>
<path d="M6.33334 8.33398H9.66668" stroke="#8E979F" stroke-width="1.5" stroke-linecap="round" stroke-linejoin="round"/>
</svg>
