<svg width="20" height="20" viewBox="0 0 20 20" fill="none" xmlns="http://www.w3.org/2000/svg">
<path fill-rule="evenodd" clip-rule="evenodd" d="M12.7082 5.41667C12.7082 5.07149 12.988 4.79167 13.3332 4.79167H18.3332C18.6783 4.79167 18.9582 5.07149 18.9582 5.41667C18.9582 5.76184 18.6783 6.04167 18.3332 6.04167H13.3332C12.988 6.04167 12.7082 5.76184 12.7082 5.41667Z" fill="#4FC1E9"/>
<path fill-rule="evenodd" clip-rule="evenodd" d="M1.0415 5.41667C1.0415 5.07149 1.32133 4.79167 1.6665 4.79167H4.99984C5.34502 4.79167 5.62484 5.07149 5.62484 5.41667C5.62484 5.76184 5.34502 6.04167 4.99984 6.04167H1.6665C1.32133 6.04167 1.0415 5.76184 1.0415 5.41667Z" fill="#4FC1E9"/>
<path fill-rule="evenodd" clip-rule="evenodd" d="M8.33317 3.125C7.06752 3.125 6.0415 4.15101 6.0415 5.41667C6.0415 6.68232 7.06752 7.70833 8.33317 7.70833C9.59882 7.70833 10.6248 6.68232 10.6248 5.41667C10.6248 4.15101 9.59882 3.125 8.33317 3.125ZM4.7915 5.41667C4.7915 3.46066 6.37716 1.875 8.33317 1.875C10.2892 1.875 11.8748 3.46066 11.8748 5.41667C11.8748 7.37268 10.2892 8.95833 8.33317 8.95833C6.37716 8.95833 4.7915 7.37268 4.7915 5.41667Z" fill="#4FC1E9"/>
<path fill-rule="evenodd" clip-rule="evenodd" d="M14.3748 14.5833C14.3748 14.2382 14.6547 13.9583 14.9998 13.9583H18.3332C18.6783 13.9583 18.9582 14.2382 18.9582 14.5833C18.9582 14.9285 18.6783 15.2083 18.3332 15.2083H14.9998C14.6547 15.2083 14.3748 14.9285 14.3748 14.5833Z" fill="#4FC1E9"/>
<path fill-rule="evenodd" clip-rule="evenodd" d="M1.0415 14.5833C1.0415 14.2382 1.32133 13.9583 1.6665 13.9583H6.6665C7.01168 13.9583 7.2915 14.2382 7.2915 14.5833C7.2915 14.9285 7.01168 15.2083 6.6665 15.2083H1.6665C1.32133 15.2083 1.0415 14.9285 1.0415 14.5833Z" fill="#4FC1E9"/>
<path fill-rule="evenodd" clip-rule="evenodd" d="M11.6665 12.2917C10.4009 12.2917 9.37484 13.3177 9.37484 14.5833C9.37484 15.849 10.4009 16.875 11.6665 16.875C12.9322 16.875 13.9582 15.849 13.9582 14.5833C13.9582 13.3177 12.9322 12.2917 11.6665 12.2917ZM8.12484 14.5833C8.12484 12.6273 9.7105 11.0417 11.6665 11.0417C13.6225 11.0417 15.2082 12.6273 15.2082 14.5833C15.2082 16.5393 13.6225 18.125 11.6665 18.125C9.7105 18.125 8.12484 16.5393 8.12484 14.5833Z" fill="#4FC1E9"/>
</svg>
