<svg width="16" height="16" viewBox="0 0 16 16" fill="none" xmlns="http://www.w3.org/2000/svg">
<path d="M9.69992 14.9463C9.47992 14.9463 9.27325 14.7997 9.21325 14.573C9.14659 14.3063 9.29992 14.033 9.56659 13.9597C12.2733 13.2463 14.1599 10.793 14.1599 7.99301C14.1599 4.59301 11.3933 1.82634 7.99325 1.82634C5.10659 1.82634 3.21325 3.51301 2.32659 4.53301H4.28659C4.55992 4.53301 4.78659 4.75967 4.78659 5.03301C4.78659 5.30634 4.57325 5.53967 4.29325 5.53967H1.33992C1.29325 5.53967 1.24659 5.53301 1.19992 5.51967C1.13992 5.49967 1.08659 5.47301 1.03992 5.43967C0.979919 5.39967 0.933252 5.34634 0.899919 5.28634C0.866585 5.21967 0.839919 5.15301 0.833252 5.07967C0.833252 5.05967 0.833252 5.04634 0.833252 5.02634V1.99967C0.833252 1.72634 1.05992 1.49967 1.33325 1.49967C1.60659 1.49967 1.83325 1.72634 1.83325 1.99967V3.59301C2.91992 2.42634 4.96659 0.833008 7.99992 0.833008C11.9533 0.833008 15.1666 4.04634 15.1666 7.99967C15.1666 11.253 12.9733 14.1063 9.82659 14.933C9.78659 14.9397 9.73992 14.9463 9.69992 14.9463Z" fill="#292D32"/>
<path d="M7.52658 15.1533C7.51325 15.1533 7.49325 15.1533 7.47992 15.1467C6.76658 15.1 6.06659 14.94 5.39992 14.68C5.20659 14.6067 5.07992 14.4133 5.07992 14.2067C5.07992 14.1467 5.09325 14.0867 5.11325 14.0333C5.21325 13.78 5.50659 13.6467 5.75992 13.7467C6.33325 13.9733 6.93992 14.1067 7.55325 14.1533H7.55992C7.82658 14.1667 8.02658 14.3933 8.02658 14.66C8.02658 14.6667 8.02658 14.68 8.02658 14.6867C8.00658 14.9467 7.78658 15.1533 7.52658 15.1533ZM3.85325 13.72C3.73992 13.72 3.63325 13.6867 3.53992 13.6133C2.97992 13.1667 2.49325 12.64 2.08659 12.0467C2.02659 11.96 1.99325 11.8667 1.99325 11.7667C1.99325 11.6 2.07325 11.4467 2.21325 11.3533C2.43325 11.2 2.75992 11.26 2.90659 11.48C3.25992 11.9933 3.67992 12.4467 4.16658 12.8267C4.27992 12.92 4.35325 13.06 4.35325 13.2133C4.35325 13.3267 4.31992 13.44 4.24658 13.5333C4.15325 13.6533 4.00659 13.72 3.85325 13.72ZM1.62659 10.4667C1.40659 10.4667 1.21325 10.3267 1.15325 10.12C0.939919 9.43333 0.833252 8.72 0.833252 8C0.833252 7.72667 1.05992 7.5 1.33325 7.5C1.60659 7.5 1.83325 7.72667 1.83325 8C1.83325 8.62 1.92659 9.23333 2.10659 9.82C2.11992 9.86667 2.12659 9.92 2.12659 9.97333C2.12659 10.1933 1.98659 10.38 1.77992 10.4467C1.72659 10.46 1.67992 10.4667 1.62659 10.4667Z" fill="#292D32"/>
<path d="M7.99992 10.6663C9.47268 10.6663 10.6666 9.47243 10.6666 7.99967C10.6666 6.52692 9.47268 5.33301 7.99992 5.33301C6.52716 5.33301 5.33325 6.52692 5.33325 7.99967C5.33325 9.47243 6.52716 10.6663 7.99992 10.6663Z" fill="#292D32"/>
</svg>
